<svg width="128" height="128" xmlns="http://www.w3.org/2000/svg"><path fill="#FFFFFC" stroke="#FFFFFC" opacity=".416" d="m53.5 0 5.5.5-5.5.5V0ZM69.5 0l5.5.5-5.5.5V0ZM48.5 1l2.5.5-2.5.5V1ZM76.5 1l3.5.5-3.5.5V1ZM44.5 2l2.5.5L42.5 4V3l2-1ZM39.5 4l1.5.5q-15.3 5.7-25 17L12.5 26l2.5-3.5 6.5-7.5 18-11ZM87.5 4 91 5.5l-1.5.5-2-2ZM94.5 7l6.5 4.5-2.5-1.5q-4-.5-4-3ZM102.5 12l10.5 9.5q7.2 7.8 11 19h-1q-5.3-15.2-16.5-24.5l-4-4ZM11.5 27 10 29.5 7.5 34l.5-1.5 3.5-5.5ZM5.5 37l.5 1.5L4.5 41 4 39.5 5.5 37ZM124.5 42l1.5 4.5h-1l-.5-4.5ZM1.5 48l.5 3.5H1l.5-3.5ZM126.5 48l.5 2.5h-1l.5-2.5ZM.5 53l.5 5.5H0L.5 53ZM127.5 53l.5 5.5h-1l.5-5.5ZM.5 69l.5 5.5H0L.5 69ZM127.5 69l.5 5.5h-1l.5-5.5ZM126.5 76l.5 3.5h-1l.5-3.5ZM1.5 77l.5 2.5H1l.5-2.5ZM2.5 81 4 85.5H3L2.5 81ZM4.5 87q5.7 15.3 17 25l4.5 3.5-3.5-2.5-7.5-6.5Q7.2 98.4 4.5 87ZM123.5 87l.5 1.5-1.5 2.5-.5-1.5 1.5-2.5ZM120.5 94l-.5 1.5-3.5 5.5 1.5-2.5 2.5-4.5ZM115.5 102l-2.5 3.5-6.5 7.5q-7.8 7.2-19 11v-1q15.2-5.3 24.5-16.5l3.5-4.5ZM27.5 116l6.5 4.5-1.5-.5q-4.6-.7-5-4ZM37.5 122l3.5 1.5-1.5.5-2-2ZM84.5 124l1.5.5-4.5 1.5v-1l3-1ZM48.5 126l3.5.5-3.5.5v-1ZM77.5 126l2.5.5-2.5.5v-1ZM53.5 127l5.5.5-5.5.5v-1ZM69.5 127l5.5.5-5.5.5v-1Z"/><path fill="#FEFEFC" stroke="#FEFEFC" opacity=".8" d="m92.5 30 3 4-3-4ZM83.5 34l1 2-1-2ZM91.5 81l-1 2 1-2ZM95.5 90l-3 4 3-4Z"/><path fill="#4C4E4B" stroke="#4C4E4B" opacity=".996" d="M62.5 20H66v8q-9.5-1.2-15.5 2-9 4-14.5 11.5l-6 13v15Q33.5 83 43.5 90l13 6H66v8h-4.5q-1.5-2.5-7-1l-12-5L30 86.5l-7-15-1-12q2.5-1.5 1-7l5-12L39.5 28l9-5 14-3Z"/><path fill="#FFFFFD" stroke="#FFFFFD" opacity=".8" d="M59.5 0q19.4-.4 32 6 12 6 20.5 15.5 7.5 8.5 12 20l3 10 1 17-1 1-1 11-4 11q-5.9 12-15.5 20.5-8.5 7.5-20 12l-10 3-17 1-1-1-11-1-11-4q-12.1-5.9-20.5-15.5-7.5-8.5-12-20l-3-10-1-17 1-1 1-11 4-11Q12 24.4 21.5 16q8.5-7.5 20-12l18-4ZM56 20q-13 3-20 10-10 9-14 24-2 12 1 21l9 16q9 9 24 13 12 2 21-1l16-9q9-9 13-23 2-13-1-21l-9-16q-8-9-19-13-9-3-21-1Z"/><path fill="#FFFFFD" stroke="#FFFFFD" opacity=".8" d="m62.5 28 13 2q8.9 3.6 14.5 10.5 7.4 8.1 8 23l-2 10-3 6-7.5 8.5q-8.1 7.4-23 8l-10-2-6-3-8.5-7.5q-7.4-8.1-8-23l2-10 3-6 7.5-8.5 8-5 12-3Z"/><path fill="#4E85B5" stroke="#4E85B5" opacity=".988" d="M66 20q20.2 1.4 30 14.5 6.2 6.8 9 17l1 16Q102.9 84.9 91.5 94q-9.2 9-25.5 10v-8h3.5q14-3 21.5-12.5 8.1-8.9 7-27-3-14-12.5-21.5Q78 28.8 66 28v-8ZM41.5 36l-3 4 3-4ZM38.5 84l3 4-3-4Z"/><path fill="#6D6F6C" stroke="#6D6F6C" opacity=".953" d="m58.5 20 3.5.5-3.5.5v-1ZM37.5 29l-5 6 5-6ZM43.5 34l-1 2 1-2ZM37.5 40l-1 2 1-2ZM22.5 56l.5 2.5h-1l.5-2.5ZM22.5 64l.5 3.5h-1l.5-3.5ZM36.5 82l1 2-1-2ZM31.5 88l5 6-5-6ZM42.5 88l1 2-1-2ZM40.5 96l1 2-1-2ZM58.5 103l2.5.5-2.5.5v-1Z"/><path fill="#C5D2DC" stroke="#C5D2DC" opacity=".851" d="m70.5 20 2.5.5-2.5.5v-1ZM39.5 27l-1 2 1-2ZM58.5 28l3.5.5-3.5.5v-1ZM67.5 28l2.5.5-2.5.5v-1ZM89.5 28l1 2-1-2ZM34.5 31l-1 2 1-2ZM85.5 35l4 5-4-5ZM96.5 35l1 2-1-2ZM30.5 36l-1 2 1-2ZM91.5 42l1 2-1-2ZM30.5 56l.5 3.5h-1l.5-3.5ZM30.5 64l.5 3.5h-1l.5-3.5ZM97.5 65l.5 2.5h-1l.5-2.5ZM105.5 68l.5 2.5h-1l.5-2.5ZM90.5 83l-4 5 4-5ZM29.5 86l1 2-1-2ZM97.5 87l-1 2 1-2ZM83.5 89l-1 2 1-2ZM33.5 91l1 2-1-2ZM90.5 94l-1 2 1-2ZM38.5 95l1 2-1-2ZM58.5 95l3.5.5-3.5.5v-1Z"/></svg>